<svg width="349" height="38" viewBox="0 0 349 38" fill="none" xmlns="http://www.w3.org/2000/svg">
<rect x="1" y="1" width="347" height="36" rx="9" fill="white" stroke="#005B61" stroke-width="2"/>
<path d="M161.176 23V14.6H164.464C165.064 14.6 165.604 14.7 166.084 14.9C166.572 15.1 166.988 15.388 167.332 15.764C167.676 16.14 167.94 16.584 168.124 17.096C168.308 17.608 168.4 18.176 168.4 18.8C168.4 19.424 168.308 19.996 168.124 20.516C167.94 21.028 167.676 21.472 167.332 21.848C166.996 22.216 166.584 22.5 166.096 22.7C165.608 22.9 165.064 23 164.464 23H161.176ZM162.472 21.884L162.436 21.752H164.404C164.828 21.752 165.204 21.684 165.532 21.548C165.868 21.412 166.148 21.22 166.372 20.972C166.604 20.716 166.78 20.404 166.9 20.036C167.02 19.668 167.08 19.256 167.08 18.8C167.08 18.344 167.02 17.936 166.9 17.576C166.78 17.208 166.604 16.896 166.372 16.64C166.14 16.384 165.86 16.188 165.532 16.052C165.204 15.916 164.828 15.848 164.404 15.848H162.4L162.472 15.74V21.884ZM172.673 23.12C172.057 23.12 171.505 22.98 171.017 22.7C170.537 22.412 170.157 22.024 169.877 21.536C169.597 21.04 169.457 20.476 169.457 19.844C169.457 19.212 169.597 18.652 169.877 18.164C170.157 17.668 170.537 17.28 171.017 17C171.505 16.712 172.057 16.568 172.673 16.568C173.281 16.568 173.825 16.712 174.305 17C174.793 17.28 175.177 17.668 175.457 18.164C175.737 18.652 175.877 19.212 175.877 19.844C175.877 20.476 175.737 21.04 175.457 21.536C175.177 22.024 174.793 22.412 174.305 22.7C173.825 22.98 173.281 23.12 172.673 23.12ZM172.673 21.992C173.049 21.992 173.385 21.9 173.681 21.716C173.977 21.524 174.209 21.268 174.377 20.948C174.545 20.62 174.625 20.252 174.617 19.844C174.625 19.428 174.545 19.06 174.377 18.74C174.209 18.412 173.977 18.156 173.681 17.972C173.385 17.788 173.049 17.696 172.673 17.696C172.297 17.696 171.957 17.792 171.653 17.984C171.357 18.168 171.125 18.424 170.957 18.752C170.789 19.072 170.709 19.436 170.717 19.844C170.709 20.252 170.789 20.62 170.957 20.948C171.125 21.268 171.357 21.524 171.653 21.716C171.957 21.9 172.297 21.992 172.673 21.992ZM177.223 23V16.7H178.459V17.996L178.243 18.14C178.323 17.86 178.479 17.604 178.711 17.372C178.943 17.132 179.219 16.94 179.539 16.796C179.859 16.644 180.187 16.568 180.523 16.568C181.003 16.568 181.403 16.664 181.723 16.856C182.043 17.04 182.283 17.324 182.443 17.708C182.603 18.092 182.683 18.576 182.683 19.16V23H181.447V19.244C181.447 18.884 181.399 18.588 181.303 18.356C181.207 18.116 181.059 17.944 180.859 17.84C180.659 17.728 180.411 17.68 180.115 17.696C179.875 17.696 179.655 17.736 179.455 17.816C179.255 17.888 179.079 17.992 178.927 18.128C178.783 18.264 178.667 18.424 178.579 18.608C178.499 18.784 178.459 18.976 178.459 19.184V23H177.847C177.743 23 177.639 23 177.535 23C177.431 23 177.327 23 177.223 23ZM187.3 23.12C186.652 23.12 186.076 22.984 185.572 22.712C185.076 22.432 184.684 22.052 184.396 21.572C184.116 21.092 183.976 20.54 183.976 19.916C183.976 19.42 184.056 18.968 184.216 18.56C184.376 18.152 184.596 17.8 184.876 17.504C185.164 17.2 185.504 16.968 185.896 16.808C186.296 16.64 186.728 16.556 187.192 16.556C187.6 16.556 187.98 16.636 188.332 16.796C188.684 16.948 188.988 17.16 189.244 17.432C189.508 17.704 189.708 18.028 189.844 18.404C189.988 18.772 190.056 19.176 190.048 19.616L190.036 20.144H184.888L184.612 19.16H188.968L188.788 19.364V19.076C188.764 18.812 188.676 18.576 188.524 18.368C188.372 18.16 188.18 17.996 187.948 17.876C187.716 17.756 187.464 17.696 187.192 17.696C186.76 17.696 186.396 17.78 186.1 17.948C185.804 18.108 185.58 18.348 185.428 18.668C185.276 18.98 185.2 19.368 185.2 19.832C185.2 20.272 185.292 20.656 185.476 20.984C185.66 21.304 185.92 21.552 186.256 21.728C186.592 21.904 186.98 21.992 187.42 21.992C187.732 21.992 188.02 21.94 188.284 21.836C188.556 21.732 188.848 21.544 189.16 21.272L189.784 22.148C189.592 22.34 189.356 22.508 189.076 22.652C188.804 22.796 188.512 22.912 188.2 23C187.896 23.08 187.596 23.12 187.3 23.12Z" fill="black"/>
</svg>
