<svg width="41" height="41" viewBox="0 0 41 41" fill="none" xmlns="http://www.w3.org/2000/svg">
<circle cx="20.5" cy="20.5" r="19.5" fill="#171717" stroke="white" stroke-width="2"/>
<rect x="11" y="10" width="21" height="21" stroke="#171717"/>
<path d="M15.9062 19.4062C17.8392 19.4062 19.4062 17.8392 19.4062 15.9062C19.4062 13.9733 17.8392 12.4062 15.9062 12.4062C13.9733 12.4062 12.4062 13.9733 12.4062 15.9062C12.4062 17.8392 13.9733 19.4062 15.9062 19.4062Z" stroke="white" stroke-width="2" stroke-linecap="round" stroke-linejoin="round"/>
<path d="M26.0938 29.5938C28.0267 29.5938 29.5938 28.0267 29.5938 26.0938C29.5938 24.1608 28.0267 22.5938 26.0938 22.5938C24.1608 22.5938 22.5938 24.1608 22.5938 26.0938C22.5938 28.0267 24.1608 29.5938 26.0938 29.5938Z" stroke="white" stroke-width="2" stroke-linecap="round" stroke-linejoin="round"/>
<path d="M26.0938 19.4062C28.0267 19.4062 29.5938 17.8392 29.5938 15.9062C29.5938 13.9733 28.0267 12.4062 26.0938 12.4062C24.1608 12.4062 22.5938 13.9733 22.5938 15.9062C22.5938 17.8392 24.1608 19.4062 26.0938 19.4062Z" stroke="white" stroke-width="2" stroke-linecap="round" stroke-linejoin="round"/>
<path d="M15.9062 29.5938C17.8392 29.5938 19.4062 28.0267 19.4062 26.0938C19.4062 24.1608 17.8392 22.5938 15.9062 22.5938C13.9733 22.5938 12.4062 24.1608 12.4062 26.0938C12.4062 28.0267 13.9733 29.5938 15.9062 29.5938Z" stroke="white" stroke-width="2" stroke-linecap="round" stroke-linejoin="round"/>
</svg>
